# xmcd
#
# Track frame offsets:
#	150
#	20515
#	38877
#	56295
#	79050
#	98210
#	112085
#	129125
#	152107
#	173057
#	186552
#	201440
#	221662
#	244427
#
# Disc length: 3446
#
# Revision: 1
# Processed by: cddbd v1.5.1PL0 Copyright (c) Steve Scherf et al.
# Submitted via: dBpowerAMP V4.0
# Normalized: r0:TRMNUM
#
DISCID=c60d740e
DTITLE=Turku - Yaban gulu
DYEAR=2003
DGENRE=
TTITLE0=naze
TTITLE1=felek utansin
TTITLE2=sallana sallana
TTITLE3=dilocan
TTITLE4=belli degil
TTITLE5=halo
TTITLE6=sabiha
TTITLE7=yaban gulu
TTITLE8=iki dagin arasinda
TTITLE9=deli gonul
TTITLE10=benim cananim
TTITLE11=beni aglatma
TTITLE12=cano
TTITLE13=de hele kirve
EXTD=my name is serhat and the singer in this cd is turkish like me,\n her name is "türkü" and the album is "yaban gulu" 
EXTT0=
EXTT1=
EXTT2=
EXTT3=
EXTT4=
EXTT5=
EXTT6=
EXTT7=
EXTT8=
EXTT9=
EXTT10=
EXTT11=
EXTT12=
EXTT13=
PLAYORDER=
